#N canvas 646 98 392 259 10;
#N canvas 1931 84 615 482 gui 0;
#N canvas 2370 55 754 688 GeneradorNotas 0;
#X floatatom 399 404 5 0 0 0 - - -;
#X text 461 274 escojedor de nota;
#N canvas 1513 21 1051 798 ruteador 0;
#X obj -73 125 route 24 25 26 27 28 29 30 31 32 33 34 35 36;
#X msg -73 188 24;
#X msg -33 188 25;
#X msg 6 188 26;
#X msg 43 188 27;
#X msg 83 188 28;
#X msg 122 188 29;
#X msg 163 188 30;
#X msg 203 188 31;
#X msg 242 188 32;
#X msg 279 188 33;
#X msg 319 188 34;
#X msg 358 188 35;
#X msg 396 188 36;
#X obj -73 42 inlet entrada de notas;
#X obj 697 38 inlet octava;
#X obj 697 106 send \$0-octava;
#X text 69 41 entran las notas elegidas por interprete;
#X obj 325 412 receive \$0-octava;
#X obj 697 61 i \$2;
#X obj 697 83 * 12;
#X obj 325 434 t b f;
#X obj 325 495 +;
#X text 436 415 entra el pitch de las notas * 12;
#X obj -73 451 send \$0-notas;
#X obj 181 412 receive \$0-notas;
#X msg 325 598 92 85;
#X msg 325 533 set \$1 85;
#X text 367 598 nota con velocity;
#X obj 325 770 outlet nota+velocity;
#X obj 507 37 inlet disparador;
#X text 784 36 entrada del pitch de las notas;
#X text 609 38 disparador;
#X obj 507 59 send \$0-disparador;
#X obj 174 532 receive \$0-disparador;
#X obj 325 624 unpack f f;
#X obj 325 656 makenote 40 100 100;
#X obj 325 695 pack f f;
#X obj 338 720 print nota + velocity;
#X msg 325 745 set \$1 \$2;
#X obj 778 412 receive \$0-notas;
#X msg 778 436 set \$1;
#X obj -61 68 send \$0-selector;
#X obj 654 411 receive \$0-selector;
#X msg 654 434 bang;
#X msg 778 473 32;
#N canvas 1385 151 763 553 nombre 0;
#X obj -63 135 route 24 25 26 27 28 29 30 31 32 33 34 35 36;
#X obj -63 52 inlet entrada de notas;
#X text 79 51 entran las notas elegidas por interprete;
#X msg -63 198 set Do;
#X msg -15 198 set DO#;
#X msg 39 198 set Re;
#X msg 92 198 set Re#;
#X msg 150 198 set Mi;
#X msg 203 198 set Fa;
#X msg 254 198 set Fa#;
#X msg 313 198 set Sol;
#X msg 372 198 set Sol#;
#X msg 436 198 set La;
#X msg 492 198 set La#;
#X msg 549 198 set Si;
#X msg 600 198 set Do;
#X obj -63 461 send \$0-nombreNotas;
#X connect 0 0 3 0;
#X connect 0 1 4 0;
#X connect 0 2 5 0;
#X connect 0 3 6 0;
#X connect 0 4 7 0;
#X connect 0 5 8 0;
#X connect 0 6 9 0;
#X connect 0 7 10 0;
#X connect 0 8 11 0;
#X connect 0 9 12 0;
#X connect 0 10 13 0;
#X connect 0 11 14 0;
#X connect 0 12 15 0;
#X connect 1 0 0 0;
#X connect 3 0 16 0;
#X connect 4 0 16 0;
#X connect 5 0 16 0;
#X connect 6 0 16 0;
#X connect 7 0 16 0;
#X connect 8 0 16 0;
#X connect 9 0 16 0;
#X connect 10 0 16 0;
#X connect 11 0 16 0;
#X connect 12 0 16 0;
#X connect 13 0 16 0;
#X connect 14 0 16 0;
#X connect 15 0 16 0;
#X restore 778 499 pd nombre de las notas;
#X connect 0 0 1 0;
#X connect 0 1 2 0;
#X connect 0 2 3 0;
#X connect 0 3 4 0;
#X connect 0 4 5 0;
#X connect 0 5 6 0;
#X connect 0 6 7 0;
#X connect 0 7 8 0;
#X connect 0 8 9 0;
#X connect 0 9 10 0;
#X connect 0 10 11 0;
#X connect 0 11 12 0;
#X connect 0 12 13 0;
#X connect 1 0 24 0;
#X connect 2 0 24 0;
#X connect 3 0 24 0;
#X connect 4 0 24 0;
#X connect 5 0 24 0;
#X connect 6 0 24 0;
#X connect 7 0 24 0;
#X connect 8 0 24 0;
#X connect 9 0 24 0;
#X connect 10 0 24 0;
#X connect 11 0 24 0;
#X connect 12 0 24 0;
#X connect 13 0 24 0;
#X connect 14 0 0 0;
#X connect 14 0 42 0;
#X connect 15 0 19 0;
#X connect 18 0 21 0;
#X connect 19 0 20 0;
#X connect 20 0 16 0;
#X connect 21 0 22 0;
#X connect 21 1 22 1;
#X connect 22 0 27 0;
#X connect 25 0 22 0;
#X connect 26 0 35 0;
#X connect 27 0 26 0;
#X connect 30 0 33 0;
#X connect 34 0 26 0;
#X connect 35 0 36 0;
#X connect 35 1 36 1;
#X connect 36 0 37 0;
#X connect 36 1 37 1;
#X connect 37 0 38 0;
#X connect 37 0 39 0;
#X connect 39 0 29 0;
#X connect 40 0 41 0;
#X connect 41 0 45 0;
#X connect 43 0 44 0;
#X connect 44 0 45 0;
#X connect 45 0 46 0;
#X restore 399 431 pd ruteador;
#X text 480 422 altura de las notas;
#X msg 399 457 92 0;
#X obj 122 403 == 0;
#X floatatom 58 73 5 0 1 0 - - -;
#X obj 77 428 spigot 1;
#X obj 399 336 spigot;
#X obj 58 94 send \$0-Selector;
#X obj 122 292 receive \$0-Selector;
#X obj 456 319 receive \$0-Selector;
#X floatatom 77 452 5 0 0 0 - - -;
#X msg 430 382 bang;
#X text 462 382 NoteOn;
#X obj 171 48 inlet escojedor;
#X floatatom 171 75 5 0 0 0 - - -;
#X obj 171 94 send \$0-escojedorDeNota;
#X obj 399 292 receive \$0-escojedorDeNota;
#X obj 58 48 inlet selector;
#X text 57 32 1;
#X text 169 33 2;
#X text 316 32 3;
#X obj 318 47 inlet disparadorDeNota;
#X obj 318 93 send \$0-disparadorDeNota;
#X text 360 70 bang;
#X obj 430 359 receive \$0-disparadorDeNota;
#X obj 399 379 i;
#X text 470 31 4;
#X obj 472 46 inlet alturaNotas;
#X obj 472 92 send \$0-alturaNotas;
#X floatatom 472 69 5 0 0 0 - - -;
#X obj 462 405 receive \$0-alturaNotas;
#X text 597 30 4;
#X floatatom 599 68 5 0 0 0 - - -;
#X obj 599 45 inlet frecuencia;
#X obj 599 91 send \$0-Frecuencia;
#X obj 77 266 receive \$0-Frecuencia;
#X obj 77 497 outlet frecuenciaOscilador;
#X obj 399 485 outlet noteVelocity;
#X msg 318 70 bang;
#X obj 84 473 print Frecuencia;
#X connect 0 0 2 0;
#X connect 2 0 4 0;
#X connect 4 0 39 0;
#X connect 5 0 7 1;
#X connect 6 0 9 0;
#X connect 7 0 12 0;
#X connect 8 0 27 0;
#X connect 10 0 5 0;
#X connect 11 0 8 1;
#X connect 12 0 38 0;
#X connect 12 0 41 0;
#X connect 13 0 2 1;
#X connect 15 0 16 0;
#X connect 16 0 17 0;
#X connect 18 0 8 0;
#X connect 19 0 6 0;
#X connect 23 0 40 0;
#X connect 26 0 13 0;
#X connect 27 0 0 0;
#X connect 29 0 31 0;
#X connect 31 0 30 0;
#X connect 32 0 2 2;
#X connect 34 0 36 0;
#X connect 35 0 34 0;
#X connect 37 0 7 0;
#X connect 40 0 24 0;
#X restore -35 330 pd GeneradorNotas;
#X obj 101 101 cnv 15 148 209 empty empty GeneradorNotas 20 12 0 14
-84085 -262144 0;
#X obj 160 126 hradio 15 1 0 2 empty empty empty 0 -8 0 10 -262144
-1 -1 0;
#X obj 183 248 bng 15 250 50 0 empty empty Bang 17 7 0 10 -262144 -1
-1;
#X obj 183 202 knob 32 32 24 36 0 0 empty empty empty 0 -8 0 8 -262144
-262144 -1 2200 1;
#X obj 265 193 r \$0-nombreNotas;
#X symbolatom 221 210 4 0 0 0 - - -;
#X text 193 124 Push;
#X text 132 124 Line;
#X text 202 155 |;
#X text 202 144 |;
#X text 202 161 V;
#X obj 101 142 cnv 15 74 167 empty empty empty 20 12 0 14 -83445 -262144
0;
#X obj 182 295 hradio 10 1 0 6 empty empty empty 0 -8 0 10 -262144
-1 -1 5;
#X text 181 279 Octava;
#X text 140 155 |;
#X text 140 144 |;
#X text 140 161 V;
#X obj 136 180 vsl 15 100 20 15000 0 0 empty empty empty 0 -9 0 10
-262144 -1 -1 5700 1;
#X text 153 174 F;
#X text 153 185 R;
#X text 153 196 E;
#X text 153 207 C;
#X text 153 217 U;
#X text 153 227 E;
#X text 153 237 N;
#X text 153 247 C;
#X text 153 258 I;
#X text 153 268 A;
#X text 180 179 SelectNote;
#X connect 2 0 0 0;
#X connect 3 0 0 2;
#X connect 4 0 0 1;
#X connect 5 0 6 0;
#X connect 13 0 0 3;
#X connect 18 0 0 4;
#X coords 0 -1 1 1 150 210 1 100 100;
#X restore 24 -170 pd gui;
#X coords 0 259 1 258 150 100 0;
