#N canvas 1420 22 533 252 10;
#N canvas 1977 94 754 688 GeneradorNotas 0;
#X floatatom 399 404 5 0 0 0 - - -;
#X text 461 274 escojedor de nota;
#N canvas 1280 22 1192 795 ruteador 0;
#X obj -73 125 route 24 25 26 27 28 29 30 31 32 33 34 35 36;
#X msg -73 188 24;
#X msg -33 188 25;
#X msg 6 188 26;
#X msg 43 188 27;
#X msg 83 188 28;
#X msg 122 188 29;
#X msg 163 188 30;
#X msg 203 188 31;
#X msg 242 188 32;
#X msg 279 188 33;
#X msg 319 188 34;
#X msg 358 188 35;
#X msg 396 188 36;
#X obj -73 42 inlet entrada de notas;
#X obj 748 38 inlet octava;
#X obj 748 106 send \$0-octava;
#X text 69 41 entran las notas elegidas por interprete;
#X obj 325 412 receive \$0-octava;
#X obj 748 61 i \$2;
#X obj 748 83 * 12;
#X obj 325 434 t b f;
#X obj 325 495 +;
#X text 436 415 entra el pitch de las notas * 12;
#X obj -73 451 send \$0-notas;
#X obj 181 412 receive \$0-notas;
#X msg 325 598 24 85;
#X msg 325 533 set \$1 85;
#X text 367 598 nota con velocity;
#X obj 325 770 outlet nota+velocity;
#X obj 507 37 inlet disparador;
#X text 835 36 entrada del pitch de las notas;
#X text 609 38 disparador;
#X obj 507 59 send \$0-disparador;
#X obj 174 532 receive \$0-disparador;
#X obj 325 624 unpack f f;
#X obj 325 656 makenote 40 100 100;
#X obj 325 695 pack f f;
#X obj 338 720 print nota + velocity;
#X msg 325 745 set \$1 \$2;
#X obj 896 410 receive \$0-notas;
#X msg 896 434 set \$1;
#X obj -61 68 send \$0-selector;
#X obj 772 409 receive \$0-selector;
#X msg 772 432 bang;
#X msg 896 471 24;
#N canvas 1385 151 763 553 nombre 0;
#X obj -63 135 route 24 25 26 27 28 29 30 31 32 33 34 35 36;
#X obj -63 52 inlet entrada de notas;
#X text 79 51 entran las notas elegidas por interprete;
#X msg -63 198 set Do;
#X msg -15 198 set DO#;
#X msg 39 198 set Re;
#X msg 92 198 set Re#;
#X msg 150 198 set Mi;
#X msg 203 198 set Fa;
#X msg 254 198 set Fa#;
#X msg 313 198 set Sol;
#X msg 372 198 set Sol#;
#X msg 436 198 set La;
#X msg 492 198 set La#;
#X msg 549 198 set Si;
#X msg 600 198 set Do;
#X obj -63 461 send \$0-nombreNotas;
#X connect 0 0 3 0;
#X connect 0 1 4 0;
#X connect 0 2 5 0;
#X connect 0 3 6 0;
#X connect 0 4 7 0;
#X connect 0 5 8 0;
#X connect 0 6 9 0;
#X connect 0 7 10 0;
#X connect 0 8 11 0;
#X connect 0 9 12 0;
#X connect 0 10 13 0;
#X connect 0 11 14 0;
#X connect 0 12 15 0;
#X connect 1 0 0 0;
#X connect 3 0 16 0;
#X connect 4 0 16 0;
#X connect 5 0 16 0;
#X connect 6 0 16 0;
#X connect 7 0 16 0;
#X connect 8 0 16 0;
#X connect 9 0 16 0;
#X connect 10 0 16 0;
#X connect 11 0 16 0;
#X connect 12 0 16 0;
#X connect 13 0 16 0;
#X connect 14 0 16 0;
#X connect 15 0 16 0;
#X restore 896 497 pd nombre de las notas;
#X connect 0 0 1 0;
#X connect 0 1 2 0;
#X connect 0 2 3 0;
#X connect 0 3 4 0;
#X connect 0 4 5 0;
#X connect 0 5 6 0;
#X connect 0 6 7 0;
#X connect 0 7 8 0;
#X connect 0 8 9 0;
#X connect 0 9 10 0;
#X connect 0 10 11 0;
#X connect 0 11 12 0;
#X connect 0 12 13 0;
#X connect 1 0 24 0;
#X connect 2 0 24 0;
#X connect 3 0 24 0;
#X connect 4 0 24 0;
#X connect 5 0 24 0;
#X connect 6 0 24 0;
#X connect 7 0 24 0;
#X connect 8 0 24 0;
#X connect 9 0 24 0;
#X connect 10 0 24 0;
#X connect 11 0 24 0;
#X connect 12 0 24 0;
#X connect 13 0 24 0;
#X connect 14 0 0 0;
#X connect 14 0 42 0;
#X connect 15 0 19 0;
#X connect 18 0 21 0;
#X connect 19 0 20 0;
#X connect 20 0 16 0;
#X connect 21 0 22 0;
#X connect 21 1 22 1;
#X connect 22 0 27 0;
#X connect 25 0 22 0;
#X connect 26 0 35 0;
#X connect 27 0 26 0;
#X connect 30 0 33 0;
#X connect 34 0 26 0;
#X connect 35 0 36 0;
#X connect 35 1 36 1;
#X connect 36 0 37 0;
#X connect 36 1 37 1;
#X connect 37 0 38 0;
#X connect 37 0 39 0;
#X connect 39 0 29 0;
#X connect 40 0 41 0;
#X connect 41 0 45 0;
#X connect 43 0 44 0;
#X connect 44 0 45 0;
#X connect 45 0 46 0;
#X restore 399 431 pd ruteador;
#X text 480 422 altura de las notas;
#X msg 399 457 29 0;
#X obj 122 403 == 0;
#X floatatom 58 73 5 0 1 0 - - -;
#X obj 77 428 spigot 1;
#X obj 399 336 spigot;
#X obj 58 94 send \$0-Selector;
#X obj 122 292 receive \$0-Selector;
#X obj 456 319 receive \$0-Selector;
#X floatatom 77 452 5 0 0 0 - - -;
#X msg 430 382 bang;
#X text 462 382 NoteOn;
#X obj 171 48 inlet escojedor;
#X floatatom 171 75 5 0 0 0 - - -;
#X obj 171 94 send \$0-escojedorDeNota;
#X obj 399 292 receive \$0-escojedorDeNota;
#X obj 58 48 inlet selector;
#X text 57 32 1;
#X text 169 33 2;
#X text 316 32 3;
#X obj 318 47 inlet disparadorDeNota;
#X obj 318 93 send \$0-disparadorDeNota;
#X text 351 68 bang;
#X obj 430 359 receive \$0-disparadorDeNota;
#X obj 399 379 i;
#X text 470 31 4;
#X obj 472 46 inlet alturaNotas;
#X obj 472 92 send \$0-alturaNotas;
#X floatatom 472 69 5 0 0 0 - - -;
#X obj 462 405 receive \$0-alturaNotas;
#X text 597 30 4;
#X floatatom 599 68 5 0 0 0 - - -;
#X obj 599 45 inlet frecuencia;
#X obj 599 91 send \$0-Frecuencia;
#X obj 77 266 receive \$0-Frecuencia;
#X obj 77 497 outlet frecuenciaOscilador;
#X obj 399 485 outlet noteVelocity;
#X obj 85 475 print frecuencia;
#X msg 318 69 bang;
#X connect 0 0 2 0;
#X connect 2 0 4 0;
#X connect 4 0 39 0;
#X connect 5 0 7 1;
#X connect 6 0 9 0;
#X connect 7 0 12 0;
#X connect 8 0 27 0;
#X connect 10 0 5 0;
#X connect 11 0 8 1;
#X connect 12 0 38 0;
#X connect 12 0 40 0;
#X connect 13 0 2 1;
#X connect 15 0 16 0;
#X connect 16 0 17 0;
#X connect 18 0 8 0;
#X connect 19 0 6 0;
#X connect 23 0 41 0;
#X connect 26 0 13 0;
#X connect 27 0 0 0;
#X connect 29 0 31 0;
#X connect 31 0 30 0;
#X connect 32 0 2 2;
#X connect 34 0 36 0;
#X connect 35 0 34 0;
#X connect 37 0 7 0;
#X connect 41 0 24 0;
#X restore 72 97 pd GeneradorNotas;
