#N canvas 556 122 345 230 10;
#N canvas 670 186 486 419 gui 0;
#N canvas 1978 70 606 836 metronomo 0;
#X obj 35 25 inlet sync;
#X obj 35 50 send \$0-sync;
#X obj 249 310 timer;
#X obj 246 181 f;
#X obj 277 181 + 1;
#X obj 290 240 sel 3;
#X msg 289 150 0;
#X obj 237 240 moses 1;
#X obj 237 276 bang;
#X obj 277 278 bang;
#X obj 243 354 f;
#X obj 276 355 +;
#X obj 249 332 t b f;
#X obj 310 331 == 3;
#X obj 244 400 spigot;
#X obj 243 379 /;
#X obj 246 202 t f f f;
#X floatatom 244 428 5 0 0 0 - - -;
#X text 244 83 sync;
#X obj 298 457 t b f;
#X obj 244 480 expr $f1 + $f2;
#X floatatom 298 436 5 -10 10 1 +/- - -;
#X floatatom 244 532 5 0 0 0 - - -;
#X text 281 535 ms;
#X obj 244 589 expr 60000 / $f1;
#X text 346 591 bpm;
#X floatatom 244 625 5 0 0 0 - - -;
#X obj 217 688 metro;
#X obj 190 656 loadbang;
#X msg 217 709 bang;
#X obj 217 732 bng 15 250 50 0 empty empty empty 17 7 0 10 -262144
-1 -1;
#X obj 246 100 receive \$0-sync;
#X obj 141 26 inlet tempo;
#X obj 141 50 send \$0-Tempo;
#X obj 298 409 receive \$0-Tempo;
#X obj 252 555 print tempoMS;
#X obj 270 657 print BPM;
#X obj 217 756 send \$0-Led;
#X obj 360 641 send \$0-BPM;
#X obj 130 803 outlet clickTap;
#X obj 414 548 outlet tempoMS;
#X text 33 6 Aqui va un bang;
#X text 139 7 un slider de -10/10;
#X connect 0 0 1 0;
#X connect 2 0 12 0;
#X connect 3 0 4 0;
#X connect 3 0 16 0;
#X connect 4 0 3 1;
#X connect 5 0 6 0;
#X connect 6 0 3 1;
#X connect 6 0 11 1;
#X connect 7 0 8 0;
#X connect 7 1 9 0;
#X connect 8 0 2 0;
#X connect 9 0 2 1;
#X connect 9 0 2 0;
#X connect 10 0 11 1;
#X connect 10 0 15 0;
#X connect 11 0 10 1;
#X connect 12 0 10 0;
#X connect 12 1 11 0;
#X connect 13 0 14 1;
#X connect 14 0 17 0;
#X connect 15 0 14 0;
#X connect 16 0 5 0;
#X connect 16 1 7 0;
#X connect 16 2 13 0;
#X connect 16 2 15 1;
#X connect 17 0 20 0;
#X connect 19 0 20 0;
#X connect 19 1 20 1;
#X connect 20 0 22 0;
#X connect 21 0 19 0;
#X connect 22 0 24 0;
#X connect 22 0 35 0;
#X connect 22 0 40 0;
#X connect 24 0 26 0;
#X connect 26 0 27 1;
#X connect 26 0 36 0;
#X connect 26 0 38 0;
#X connect 27 0 29 0;
#X connect 28 0 27 0;
#X connect 29 0 30 0;
#X connect 29 0 39 0;
#X connect 30 0 37 0;
#X connect 31 0 3 0;
#X connect 32 0 33 0;
#X connect 34 0 21 0;
#X restore 141 253 pd metronomo;
#X obj 101 101 cnv 15 98 129 empty empty Metronomo 15 12 0 14 -213777
-262144 0;
#X obj 141 137 bng 20 250 50 0 empty empty empty 17 7 0 10 -262144
-1 -1;
#X text 138 122 SYNC;
#X obj 107 181 hsl 87 15 -10 10 0 0 empty empty empty -2 -8 0 10 -262144
-1 -1 0 1;
#X text 135 165 Tempo;
#X obj 184 137 bng 12 250 50 0 empty empty empty 17 7 0 10 -1 -257985
-1;
#X obj 234 120 receive \$0-Led;
#X obj 123 212 nbx 5 14 -1e+37 1e+37 0 0 empty empty empty 0 -8 0 10
-262144 -1 -1 214.095 256;
#X text 137 197 BPM;
#X obj 294 195 receive \$0-BPM;
#X obj 141 298 outlet click;
#X obj 210 337 outlet milisegundos;
#X obj 104 39 loadbang;
#X msg 104 60 0;
#X connect 0 0 11 0;
#X connect 0 1 12 0;
#X connect 2 0 0 0;
#X connect 4 0 0 1;
#X connect 7 0 6 0;
#X connect 10 0 8 0;
#X connect 13 0 14 0;
#X connect 14 0 4 0;
#X coords 0 -1 1 1 100 130 1 100 100;
#X restore 34 13 pd gui;
