#N canvas 1334 22 761 736 10;
#X text 143 152 nota;
#X obj 103 265 noteout 1;
#X floatatom 111 150 5 0 0 0 - - -;
#N canvas 196 22 1280 752 (subpatch) 0;
#X obj -106 260 metro;
#X obj 103 166 tgl 30 0 empty empty ON/OFF 0 -8 0 10 -262144 -1 -1
0 1;
#X msg -191 -62 \; pd dsp 1;
#X obj -191 -86 loadbang;
#X floatatom -79 240 6 0 0 0 - - -;
#N canvas 457 149 417 471 keys 0;
#X obj 109 -56 keyname;
#X symbolatom 166 -37 10 0 0 0 - - -;
#X msg 166 119 symbol e;
#X msg 166 -14 set symbol \$1;
#X obj 166 309 outlet;
#X obj 166 142 sel + -;
#X obj 109 -34 bng 15 250 50 0 empty empty empty 17 7 0 10 -262144
-1 -1;
#X obj 109 -16 cup;
#X floatatom 109 3 5 0 0 0 - - -;
#X floatatom 109 42 5 0 0 0 - - -;
#X obj 109 22 % 2;
#X obj 109 62 sel 0;
#X obj 109 83 bng 15 250 50 0 empty empty empty 17 7 0 10 -262144 -1
-1;
#X obj 166 165 bng 15 250 50 0 empty empty empty 17 7 0 10 -262144
-1 -1;
#X obj 185 165 bng 15 250 50 0 empty empty empty 17 7 0 10 -262144
-1 -1;
#X floatatom 166 287 5 0 0 0 - - -;
#X obj 166 238 f;
#X obj 166 260 + 1;
#X obj 238 57 expr $f1 - 1;
#X obj 212 239 - 1;
#X obj 185 187 f;
#X msg 306 261 129;
#X connect 0 0 6 0;
#X connect 0 1 1 0;
#X connect 1 0 3 0;
#X connect 2 0 5 0;
#X connect 3 0 2 0;
#X connect 5 0 13 0;
#X connect 5 1 14 0;
#X connect 6 0 7 0;
#X connect 7 0 8 0;
#X connect 8 0 10 0;
#X connect 9 0 11 0;
#X connect 10 0 9 0;
#X connect 11 0 12 0;
#X connect 12 0 2 0;
#X connect 13 0 16 0;
#X connect 14 0 20 0;
#X connect 15 0 4 0;
#X connect 16 0 17 0;
#X connect 16 0 19 0;
#X connect 17 0 16 1;
#X connect 17 0 15 0;
#X connect 19 0 20 1;
#X connect 19 0 15 0;
#X connect 20 0 19 0;
#X connect 20 0 16 0;
#X connect 21 0 15 0;
#X restore 309 87 pd keys;
#X obj 103 308 hradio 22 1 0 4 empty bpm empty 0 -8 0 10 -262144 -1
-1 3;
#X floatatom 103 356 5 0 0 0 - - -;
#X obj 103 336 + 1;
#X obj 110 515 osc~ 440;
#X obj 110 607 *~ 0.5;
#X obj 154 690 dac~;
#N canvas 313 248 563 425 envolvente 0;
#X obj 23 143 bng 15 250 50 0 empty empty empty 17 7 0 10 -262144 -1
-1;
#X floatatom 157 134 5 0 0 0 attack - -;
#X floatatom 209 171 5 0 0 0 decay - -;
#X floatatom 273 195 5 0 0 0 sustain - -;
#X floatatom 326 220 5 0 0 0 release - -;
#X obj 273 50 loadbang;
#X msg 326 200 261;
#X obj 136 252 pack 51 87 31 261;
#X obj 136 222 f 51;
#X msg 157 112 31;
#N canvas 0 22 609 699 vadsr2 0;
#X obj 147 485 vline~;
#X obj 29 425 vline~;
#X obj 147 515 dbtorms~;
#X obj 29 455 dbtorms~;
#X obj 13 515 -~;
#X obj 13 485 sig~ 1;
#X obj 152 172 rmstodb;
#X obj 86 112 max 0.1;
#X obj 333 126 max 0.1;
#X obj 145 219 t b f;
#X obj 29 22 inlet;
#X obj 84 637 outlet~;
#X obj 375 562 outlet;
#X obj 375 502 f 1;
#X obj 415 502 f 0;
#X obj 415 472 del 500;
#X msg 415 442 stop;
#X obj 376 412 t b b b;
#X text 39 319 attack decay sustain hold release;
#X obj 29 345 t a a b;
#X obj 152 142 * 0.01;
#X obj 152 112 clip 0 100;
#X obj 464 383 t b f;
#X obj 454 412 + 16;
#X obj 125 249 + 4;
#X obj 29 52 unpack f f f f;
#X obj 29 142 t a a;
#X text 79 22 attack(ms) decay(ms) sustain(%) release(ms);
#X obj 29 295 pack f f f f f;
#X obj 375 532 change 0;
#X obj 29 112 max 0;
#X msg 29 395 60 \$1 0 \, 100 0 \$1;
#X obj 147 425 t a b;
#X msg 147 455 0 \, 100 0 \$1 \, \$3 \$2 \$1 \, 0 \$5 \$4;
#X obj 214 553 snapshot~;
#X obj 214 613 -;
#X obj 214 643 rmstodb;
#X msg 214 583 1 \$1;
#X msg 397 22 version 2.0.0;
#X connect 0 0 2 0;
#X connect 1 0 3 0;
#X connect 2 0 11 0;
#X connect 2 0 34 0;
#X connect 3 0 4 1;
#X connect 4 0 11 0;
#X connect 4 0 34 0;
#X connect 5 0 4 0;
#X connect 6 0 28 2;
#X connect 7 0 9 0;
#X connect 7 0 28 1;
#X connect 8 0 22 0;
#X connect 8 0 28 4;
#X connect 9 0 24 0;
#X connect 9 1 24 1;
#X connect 10 0 25 0;
#X connect 13 0 29 0;
#X connect 14 0 29 0;
#X connect 15 0 14 0;
#X connect 16 0 15 0;
#X connect 17 0 15 0;
#X connect 17 1 13 0;
#X connect 17 2 16 0;
#X connect 19 0 31 0;
#X connect 19 1 32 0;
#X connect 19 2 17 0;
#X connect 20 0 6 0;
#X connect 21 0 20 0;
#X connect 22 0 23 0;
#X connect 22 1 23 1;
#X connect 23 0 15 1;
#X connect 24 0 23 0;
#X connect 24 0 28 3;
#X connect 25 0 30 0;
#X connect 25 1 7 0;
#X connect 25 2 21 0;
#X connect 25 3 8 0;
#X connect 26 0 28 0;
#X connect 26 1 24 0;
#X connect 28 0 19 0;
#X connect 29 0 12 0;
#X connect 30 0 26 0;
#X connect 31 0 1 0;
#X connect 32 0 33 0;
#X connect 32 1 34 0;
#X connect 33 0 0 0;
#X connect 34 0 37 0;
#X connect 35 0 36 0;
#X connect 36 0 1 0;
#X connect 37 0 35 0;
#X restore 136 299 pd vadsr2;
#X obj 23 8 inlet;
#X obj 137 376 outlet~;
#X msg 209 149 471.2;
#X msg 273 175 7;
#X connect 0 0 8 0;
#X connect 1 0 8 1;
#X connect 2 0 7 1;
#X connect 3 0 7 2;
#X connect 4 0 7 3;
#X connect 5 0 9 0;
#X connect 5 0 13 0;
#X connect 5 0 14 0;
#X connect 5 0 6 0;
#X connect 6 0 4 0;
#X connect 7 0 10 0;
#X connect 8 0 7 0;
#X connect 9 0 1 0;
#X connect 10 0 12 0;
#X connect 11 0 0 0;
#X connect 13 0 2 0;
#X connect 14 0 3 0;
#X restore 169 594 pd envolvente;
#X obj 103 383 sel 1;
#X msg 143 469 0.5;
#X msg 103 402 bang;
#X msg 130 447 bang;
#X msg 103 572 1;
#X msg 110 424 880;
#X msg 130 491 440;
#X obj -106 536 outlet;
#X obj -95 342 bng 15 250 50 0 empty empty empty 17 7 0 10 -262144
-1 -1;
#X floatatom -95 301 5 0 0 0 - - -;
#X obj -95 323 sel 0;
#X msg -95 361 0;
#X floatatom 103 288 5 0 0 1 posicion - -;
#X obj -106 382 cup;
#X obj -106 514 + 1;
#X obj 103 264 tgl 20 0 empty empty MUTE 22 5 0 10 -262144 -1 -1 0
1;
#X floatatom 251 530 5 0 0 0 - - -;
#X msg 251 571 bang;
#X obj 154 665 *~;
#X msg 278 596 bang;
#X msg 251 627 0;
#X msg 278 648 0.8;
#X obj 251 549 sel 1;
#X floatatom 309 136 5 0 0 0 - - -;
#X obj 320 116 bng 15 250 50 0 empty empty empty 17 7 0 10 -262144
-1 -1;
#X obj -106 402 demux 1 2;
#X floatatom -55 383 5 0 2 0 - - -;
#X obj -55 421 mod 3;
#X obj -106 421 mod 4;
#X floatatom -106 467 5 0 0 1 Tempo_4/4 - -;
#X floatatom -55 488 5 0 0 1 Tempo_6/8 - -;
#X obj 103 234 hradio 15 1 0 2 empty empty empty 0 -8 0 10 -262144
-1 -1 0;
#X text 107 248 4;
#X text 122 248 6;
#X obj 309 156 +;
#X floatatom 309 177 5 0 0 0 - - -;
#X obj 309 195 int;
#X floatatom 104 199 5 0 0 1 BPM - -;
#X floatatom 309 234 5 0 0 0 - - -;
#X obj 179 437 cnv 15 10 10 empty empty SONIDO 20 12 0 14 -262144 -66577
0;
#X text 198 457 Consta de una onda seno \, con una pequeña dinamica
para el primer tiempo y los otros tres golpes con una dinamica igual.
;
#X text 102 216 Figura;
#X obj 343 63 cnv 15 10 10 empty empty Teclado 20 12 0 14 -262144 -66577
0;
#X text 363 87 Inicializado en 129 para empezar con un BPM de tipo
House \, con las flechas + y - podemos aumentar o disminuir el BPM.
;
#X obj 166 167 bng 20 250 50 0 empty empty TAP 0 -9 0 10 -262144 -1
-1;
#X obj 309 254 send BPM_keys;
#X text -254 559 Un minuto tiene 60 segundos \, pero el tiempo en pd
esta en milisegundos \, por eso tomamos el valor del BPM y lo dividimos
por 6000;
#X obj 205 187 send Tap;
#X obj 154 643 *~;
#X msg 169 554 bang;
#X obj -79 135 expr 60000 / $f1;
#X floatatom -79 115 5 0 0 0 - - -;
#X floatatom -79 156 6 0 0 0 - - -;
#X obj 75 65 r BPM_keys;
#X obj 309 214 expr 130 + $f1;
#X obj -8 256 s \$0-tempo;
#X obj 103 99 send \$0-boton_On/Off;
#X obj -106 183 receive \$0-boton_On/Off;
#X obj -95 281 receive \$0-boton_On/Off;
#X obj 200 249 send \$0-figura;
#X obj -55 359 r \$0-figura;
#X obj -60 531 s \$0-posicion;
#X obj 200 271 r \$0-posicion;
#X obj -99 447 s \$0-compas;
#X obj 200 291 r \$0-compas;
#X obj 293 284 send \$0-mute;
#X obj 251 502 receive \$0-mute;
#X connect 0 0 26 0;
#X connect 1 0 69 0;
#X connect 3 0 2 0;
#X connect 4 0 0 1;
#X connect 4 0 68 0;
#X connect 5 0 36 0;
#X connect 5 0 37 0;
#X connect 6 0 8 0;
#X connect 7 0 13 0;
#X connect 7 0 62 0;
#X connect 8 0 7 0;
#X connect 9 0 10 0;
#X connect 10 0 61 0;
#X connect 12 0 61 1;
#X connect 13 0 15 0;
#X connect 13 1 16 0;
#X connect 14 0 10 1;
#X connect 15 0 17 0;
#X connect 15 0 18 0;
#X connect 16 0 14 0;
#X connect 16 0 19 0;
#X connect 17 0 10 1;
#X connect 18 0 9 0;
#X connect 19 0 9 0;
#X connect 21 0 24 0;
#X connect 22 0 23 0;
#X connect 23 0 21 0;
#X connect 24 0 26 0;
#X connect 26 0 38 0;
#X connect 27 0 20 0;
#X connect 27 0 74 0;
#X connect 28 0 78 0;
#X connect 29 0 35 0;
#X connect 30 0 33 0;
#X connect 31 0 11 1;
#X connect 31 0 11 0;
#X connect 32 0 34 0;
#X connect 33 0 31 1;
#X connect 34 0 31 1;
#X connect 35 0 30 0;
#X connect 35 1 32 0;
#X connect 36 0 47 0;
#X connect 37 0 36 0;
#X connect 38 0 41 0;
#X connect 38 1 40 0;
#X connect 39 0 38 1;
#X connect 40 0 43 0;
#X connect 40 0 76 0;
#X connect 41 0 42 0;
#X connect 41 0 76 0;
#X connect 42 0 27 0;
#X connect 43 0 27 0;
#X connect 44 0 72 0;
#X connect 47 0 48 0;
#X connect 48 0 49 0;
#X connect 49 0 67 0;
#X connect 50 0 64 0;
#X connect 51 0 58 0;
#X connect 57 0 60 0;
#X connect 61 0 31 0;
#X connect 62 0 12 0;
#X connect 63 0 65 0;
#X connect 64 0 63 0;
#X connect 65 0 4 0;
#X connect 66 0 50 0;
#X connect 67 0 51 0;
#X connect 70 0 0 0;
#X connect 71 0 22 0;
#X connect 73 0 39 0;
#X connect 75 0 25 0;
#X connect 77 0 6 0;
#X connect 79 0 29 0;
#X coords 0 -1 1 1 94 183 2 100 150;
#X restore 88 -209 pd;
#X obj 69 -232 cnv 15 10 10 empty empty GLOBAL_BPM 20 12 0 14 -262144
-4160 0;
#N canvas 402 22 496 503 sinte 0;
#X obj 2 154 mtof~;
#X obj 226 166 hradio 15 1 0 5 empty empty ondas 0 -8 0 10 -262144
-1 -1 0;
#X obj 2 372 *~;
#N canvas 579 375 563 425 envolvente 0;
#X obj 23 29 bng 15 250 50 0 empty empty empty 17 7 0 10 -262144 -1
-1;
#X obj 23 143 bng 15 250 50 0 empty empty empty 17 7 0 10 -262144 -1
-1;
#X obj 23 52 cup;
#X obj 23 73 % 2;
#X floatatom 23 96 5 0 0 0 - - -;
#X floatatom 157 134 5 0 0 0 attack - -;
#X floatatom 209 171 5 0 0 0 decay - -;
#X floatatom 273 195 5 0 0 0 sustain - -;
#X floatatom 326 220 5 0 0 0 release - -;
#X obj 273 132 loadbang;
#X msg 326 200 261;
#X obj 136 252 pack 51 87 31 261;
#X obj 136 222 f 51;
#X msg 157 112 31;
#X msg 209 149 35;
#X msg 273 175 65;
#N canvas 0 22 609 699 vadsr2 0;
#X obj 147 485 vline~;
#X obj 29 425 vline~;
#X obj 147 515 dbtorms~;
#X obj 29 455 dbtorms~;
#X obj 13 515 -~;
#X obj 13 485 sig~ 1;
#X obj 152 172 rmstodb;
#X obj 86 112 max 0.1;
#X obj 333 126 max 0.1;
#X obj 145 219 t b f;
#X obj 29 22 inlet;
#X obj 84 637 outlet~;
#X obj 375 562 outlet;
#X obj 375 502 f 1;
#X obj 415 502 f 0;
#X obj 415 472 del 500;
#X msg 415 442 stop;
#X obj 376 412 t b b b;
#X text 39 319 attack decay sustain hold release;
#X obj 29 345 t a a b;
#X obj 152 142 * 0.01;
#X obj 152 112 clip 0 100;
#X obj 464 383 t b f;
#X obj 454 412 + 16;
#X obj 125 249 + 4;
#X obj 29 52 unpack f f f f;
#X obj 29 142 t a a;
#X text 79 22 attack(ms) decay(ms) sustain(%) release(ms);
#X obj 29 295 pack f f f f f;
#X obj 375 532 change 0;
#X obj 29 112 max 0;
#X msg 29 395 60 \$1 0 \, 100 0 \$1;
#X obj 147 425 t a b;
#X msg 147 455 0 \, 100 0 \$1 \, \$3 \$2 \$1 \, 0 \$5 \$4;
#X obj 214 553 snapshot~;
#X obj 214 613 -;
#X obj 214 643 rmstodb;
#X msg 214 583 1 \$1;
#X msg 397 22 version 2.0.0;
#X connect 0 0 2 0;
#X connect 1 0 3 0;
#X connect 2 0 11 0;
#X connect 2 0 34 0;
#X connect 3 0 4 1;
#X connect 4 0 11 0;
#X connect 4 0 34 0;
#X connect 5 0 4 0;
#X connect 6 0 28 2;
#X connect 7 0 9 0;
#X connect 7 0 28 1;
#X connect 8 0 22 0;
#X connect 8 0 28 4;
#X connect 9 0 24 0;
#X connect 9 1 24 1;
#X connect 10 0 25 0;
#X connect 13 0 29 0;
#X connect 14 0 29 0;
#X connect 15 0 14 0;
#X connect 16 0 15 0;
#X connect 17 0 15 0;
#X connect 17 1 13 0;
#X connect 17 2 16 0;
#X connect 19 0 31 0;
#X connect 19 1 32 0;
#X connect 19 2 17 0;
#X connect 20 0 6 0;
#X connect 21 0 20 0;
#X connect 22 0 23 0;
#X connect 22 1 23 1;
#X connect 23 0 15 1;
#X connect 24 0 23 0;
#X connect 24 0 28 3;
#X connect 25 0 30 0;
#X connect 25 1 7 0;
#X connect 25 2 21 0;
#X connect 25 3 8 0;
#X connect 26 0 28 0;
#X connect 26 1 24 0;
#X connect 28 0 19 0;
#X connect 29 0 12 0;
#X connect 30 0 26 0;
#X connect 31 0 1 0;
#X connect 32 0 33 0;
#X connect 32 1 34 0;
#X connect 33 0 0 0;
#X connect 34 0 37 0;
#X connect 35 0 36 0;
#X connect 36 0 1 0;
#X connect 37 0 35 0;
#X restore 136 299 pd vadsr2;
#X obj 23 117 sel 0;
#X obj 23 8 inlet;
#X obj 157 59 inlet;
#X text 155 41 ataque;
#X obj 209 83 inlet;
#X text 206 65 decay;
#X obj 273 93 inlet;
#X text 270 75 sustain;
#X obj 326 108 inlet;
#X text 323 90 release;
#X obj 137 376 outlet~;
#X connect 0 0 2 0;
#X connect 1 0 12 0;
#X connect 2 0 3 0;
#X connect 3 0 4 0;
#X connect 4 0 17 0;
#X connect 5 0 12 1;
#X connect 6 0 11 1;
#X connect 7 0 11 2;
#X connect 8 0 11 3;
#X connect 9 0 13 0;
#X connect 9 0 14 0;
#X connect 9 0 15 0;
#X connect 9 0 10 0;
#X connect 10 0 8 0;
#X connect 11 0 16 0;
#X connect 12 0 11 0;
#X connect 13 0 5 0;
#X connect 14 0 6 0;
#X connect 15 0 7 0;
#X connect 16 0 27 0;
#X connect 17 0 1 0;
#X connect 18 0 0 0;
#X connect 19 0 5 0;
#X connect 21 0 6 0;
#X connect 23 0 7 0;
#X connect 25 0 8 0;
#X restore 71 356 pd envolvente;
#X obj 92 215 hsl 128 15 0 2500 0 0 empty empty ATAQUE -2 -8 0 10 -262144
-1 -1 0 1;
#X obj 184 247 hsl 128 15 0 600 0 0 empty empty decay -2 -8 0 10 -262144
-1 -1 0 1;
#X obj 177 296 hsl 128 15 0 900 0 0 empty empty sustain -2 -8 0 10
-262144 -1 -1 0 1;
#X obj 187 338 hsl 128 15 0 5000 0 0 empty empty release -2 -8 0 10
-262144 -1 -1 0 1;
#N canvas 425 37 1016 736 osciladores 0;
#X obj 69 71 sin~;
#X obj 117 151 -~ 1;
#X obj 117 172 *~ 2;
#X obj 487 39 noise~;
#X obj 213 111 == 0;
#X obj 215 225 == 1;
#X obj 216 304 == 2;
#X obj 69 128 *~;
#X obj 116 242 *~;
#X obj 158 321 *~;
#X obj 487 398 *~;
#X obj 158 71 expr~ if($v1>.5 \, 1 \, -1);
#X obj 307 73 *~ 1;
#X obj 340 38 expr~ (($v1 * -1) + 1);
#X obj 341 73 *~ 1;
#X obj 308 108 min~;
#X obj 201 403 *~;
#X obj 309 387 wrap~;
#X text 4 70 senosoidal;
#X text 161 243 diente sierra;
#X text 181 323 cuadrada;
#X obj 216 352 == 3;
#X obj 368 381 == 4;
#X text 135 404 triangular;
#X obj 116 20 phasor~;
#X obj 116 -5 inlet~;
#X obj 368 208 inlet;
#X text 160 -5 Entrada de el controlador;
#X text 367 189 Entrada de el hradio;
#X obj 70 478 outlet~;
#X obj 200 461 *~ 6;
#X obj 158 355 *~ 0.5;
#X connect 0 0 7 0;
#X connect 1 0 2 0;
#X connect 2 0 8 0;
#X connect 3 0 10 0;
#X connect 4 0 7 1;
#X connect 5 0 8 1;
#X connect 6 0 9 1;
#X connect 7 0 29 0;
#X connect 8 0 29 0;
#X connect 9 0 31 0;
#X connect 10 0 29 0;
#X connect 11 0 9 0;
#X connect 12 0 15 0;
#X connect 13 0 14 0;
#X connect 14 0 15 1;
#X connect 15 0 17 0;
#X connect 16 0 30 0;
#X connect 17 0 16 0;
#X connect 21 0 16 1;
#X connect 22 0 10 1;
#X connect 24 0 0 0;
#X connect 24 0 1 0;
#X connect 24 0 11 0;
#X connect 24 0 12 0;
#X connect 24 0 13 0;
#X connect 25 0 24 0;
#X connect 26 0 4 0;
#X connect 26 0 5 0;
#X connect 26 0 6 0;
#X connect 26 0 21 0;
#X connect 26 0 22 0;
#X connect 30 0 29 0;
#X connect 31 0 29 0;
#X restore 1 181 pd osciladores;
#X obj 1 404 output~;
#X obj 2 74 notein 1;
#X obj 2 102 makenote 100;
#X floatatom 2 129 5 0 0 0 - - -;
#X obj 71 147 bng 15 250 50 0 empty empty empty 17 7 0 10 -262144 -1
-1;
#X obj 158 76 random 12;
#X floatatom 158 95 5 0 0 0 - - -;
#X obj 158 37 metro 250;
#X msg 158 17 bang;
#X msg 158 56 bang;
#X obj 231 73 random 10;
#X floatatom 231 93 5 0 0 0 - - -;
#X connect 0 0 8 0;
#X connect 1 0 8 1;
#X connect 2 0 9 0;
#X connect 2 0 9 1;
#X connect 3 0 2 1;
#X connect 4 0 3 1;
#X connect 5 0 3 2;
#X connect 6 0 3 3;
#X connect 7 0 3 4;
#X connect 8 0 2 0;
#X connect 10 0 11 0;
#X connect 10 1 11 1;
#X connect 11 0 12 0;
#X connect 11 1 13 0;
#X connect 12 0 0 0;
#X connect 13 0 3 0;
#X connect 14 0 15 0;
#X connect 16 0 18 0;
#X connect 17 0 16 0;
#X connect 18 0 14 0;
#X connect 18 0 19 0;
#X connect 19 0 20 0;
#X restore -11 -233 pd sinte 1;
#N canvas 204 22 747 742 sinte 0;
#X obj 364 429 mtof~;
#X obj 588 438 hradio 15 1 0 5 empty empty ondas 0 -8 0 10 -262144
-1 -1 0;
#X obj 364 647 *~;
#N canvas 579 375 563 425 envolvente 0;
#X obj 23 29 bng 15 250 50 0 empty empty empty 17 7 0 10 -262144 -1
-1;
#X obj 23 143 bng 15 250 50 0 empty empty empty 17 7 0 10 -262144 -1
-1;
#X obj 23 52 cup;
#X obj 23 73 % 2;
#X floatatom 23 96 5 0 0 0 - - -;
#X floatatom 157 134 5 0 0 0 attack - -;
#X floatatom 209 171 5 0 0 0 decay - -;
#X floatatom 273 195 5 0 0 0 sustain - -;
#X floatatom 326 220 5 0 0 0 release - -;
#X obj 273 132 loadbang;
#X msg 326 200 261;
#X obj 136 252 pack 51 87 31 261;
#X obj 136 222 f 51;
#X msg 157 112 31;
#X msg 209 149 35;
#X msg 273 175 65;
#N canvas 0 22 609 699 vadsr2 0;
#X obj 147 485 vline~;
#X obj 29 425 vline~;
#X obj 147 515 dbtorms~;
#X obj 29 455 dbtorms~;
#X obj 13 515 -~;
#X obj 13 485 sig~ 1;
#X obj 152 172 rmstodb;
#X obj 86 112 max 0.1;
#X obj 333 126 max 0.1;
#X obj 145 219 t b f;
#X obj 29 22 inlet;
#X obj 84 637 outlet~;
#X obj 375 562 outlet;
#X obj 375 502 f 1;
#X obj 415 502 f 0;
#X obj 415 472 del 500;
#X msg 415 442 stop;
#X obj 376 412 t b b b;
#X text 39 319 attack decay sustain hold release;
#X obj 29 345 t a a b;
#X obj 152 142 * 0.01;
#X obj 152 112 clip 0 100;
#X obj 464 383 t b f;
#X obj 454 412 + 16;
#X obj 125 249 + 4;
#X obj 29 52 unpack f f f f;
#X obj 29 142 t a a;
#X text 79 22 attack(ms) decay(ms) sustain(%) release(ms);
#X obj 29 295 pack f f f f f;
#X obj 375 532 change 0;
#X obj 29 112 max 0;
#X msg 29 395 60 \$1 0 \, 100 0 \$1;
#X obj 147 425 t a b;
#X msg 147 455 0 \, 100 0 \$1 \, \$3 \$2 \$1 \, 0 \$5 \$4;
#X obj 214 553 snapshot~;
#X obj 214 613 -;
#X obj 214 643 rmstodb;
#X msg 214 583 1 \$1;
#X msg 397 22 version 2.0.0;
#X connect 0 0 2 0;
#X connect 1 0 3 0;
#X connect 2 0 11 0;
#X connect 2 0 34 0;
#X connect 3 0 4 1;
#X connect 4 0 11 0;
#X connect 4 0 34 0;
#X connect 5 0 4 0;
#X connect 6 0 28 2;
#X connect 7 0 9 0;
#X connect 7 0 28 1;
#X connect 8 0 22 0;
#X connect 8 0 28 4;
#X connect 9 0 24 0;
#X connect 9 1 24 1;
#X connect 10 0 25 0;
#X connect 13 0 29 0;
#X connect 14 0 29 0;
#X connect 15 0 14 0;
#X connect 16 0 15 0;
#X connect 17 0 15 0;
#X connect 17 1 13 0;
#X connect 17 2 16 0;
#X connect 19 0 31 0;
#X connect 19 1 32 0;
#X connect 19 2 17 0;
#X connect 20 0 6 0;
#X connect 21 0 20 0;
#X connect 22 0 23 0;
#X connect 22 1 23 1;
#X connect 23 0 15 1;
#X connect 24 0 23 0;
#X connect 24 0 28 3;
#X connect 25 0 30 0;
#X connect 25 1 7 0;
#X connect 25 2 21 0;
#X connect 25 3 8 0;
#X connect 26 0 28 0;
#X connect 26 1 24 0;
#X connect 28 0 19 0;
#X connect 29 0 12 0;
#X connect 30 0 26 0;
#X connect 31 0 1 0;
#X connect 32 0 33 0;
#X connect 32 1 34 0;
#X connect 33 0 0 0;
#X connect 34 0 37 0;
#X connect 35 0 36 0;
#X connect 36 0 1 0;
#X connect 37 0 35 0;
#X restore 136 299 pd vadsr2;
#X obj 23 117 sel 0;
#X obj 23 8 inlet;
#X obj 157 59 inlet;
#X text 155 41 ataque;
#X obj 209 83 inlet;
#X text 206 65 decay;
#X obj 273 93 inlet;
#X text 270 75 sustain;
#X obj 326 108 inlet;
#X text 323 90 release;
#X obj 137 376 outlet~;
#X connect 0 0 2 0;
#X connect 1 0 12 0;
#X connect 2 0 3 0;
#X connect 3 0 4 0;
#X connect 4 0 17 0;
#X connect 5 0 12 1;
#X connect 6 0 11 1;
#X connect 7 0 11 2;
#X connect 8 0 11 3;
#X connect 9 0 13 0;
#X connect 9 0 14 0;
#X connect 9 0 15 0;
#X connect 9 0 10 0;
#X connect 10 0 8 0;
#X connect 11 0 16 0;
#X connect 12 0 11 0;
#X connect 13 0 5 0;
#X connect 14 0 6 0;
#X connect 15 0 7 0;
#X connect 16 0 27 0;
#X connect 17 0 1 0;
#X connect 18 0 0 0;
#X connect 19 0 5 0;
#X connect 21 0 6 0;
#X connect 23 0 7 0;
#X connect 25 0 8 0;
#X restore 433 628 pd envolvente;
#X obj 454 487 hsl 128 15 0 2500 0 0 empty empty ATAQUE -2 -8 0 10
-262144 -1 -1 0 1;
#X obj 546 519 hsl 128 15 0 600 0 0 empty empty decay -2 -8 0 10 -262144
-1 -1 0 1;
#X obj 539 568 hsl 128 15 0 900 0 0 empty empty sustain -2 -8 0 10
-262144 -1 -1 0 1;
#X obj 549 610 hsl 128 15 0 5000 0 0 empty empty release -2 -8 0 10
-262144 -1 -1 0 1;
#N canvas 425 37 1016 736 osciladores 0;
#X obj 69 71 sin~;
#X obj 117 151 -~ 1;
#X obj 117 172 *~ 2;
#X obj 487 39 noise~;
#X obj 213 111 == 0;
#X obj 215 225 == 1;
#X obj 216 304 == 2;
#X obj 69 128 *~;
#X obj 116 242 *~;
#X obj 158 321 *~;
#X obj 487 398 *~;
#X obj 158 71 expr~ if($v1>.5 \, 1 \, -1);
#X obj 307 73 *~ 1;
#X obj 340 38 expr~ (($v1 * -1) + 1);
#X obj 341 73 *~ 1;
#X obj 308 108 min~;
#X obj 201 403 *~;
#X obj 309 387 wrap~;
#X text 4 70 senosoidal;
#X text 161 243 diente sierra;
#X text 181 323 cuadrada;
#X obj 216 352 == 3;
#X obj 368 381 == 4;
#X text 135 404 triangular;
#X obj 116 20 phasor~;
#X obj 116 -5 inlet~;
#X obj 368 208 inlet;
#X text 160 -5 Entrada de el controlador;
#X text 367 189 Entrada de el hradio;
#X obj 70 478 outlet~;
#X obj 200 461 *~ 6;
#X obj 158 355 *~ 0.5;
#X connect 0 0 7 0;
#X connect 1 0 2 0;
#X connect 2 0 8 0;
#X connect 3 0 10 0;
#X connect 4 0 7 1;
#X connect 5 0 8 1;
#X connect 6 0 9 1;
#X connect 7 0 29 0;
#X connect 8 0 29 0;
#X connect 9 0 31 0;
#X connect 10 0 29 0;
#X connect 11 0 9 0;
#X connect 12 0 15 0;
#X connect 13 0 14 0;
#X connect 14 0 15 1;
#X connect 15 0 17 0;
#X connect 16 0 30 0;
#X connect 17 0 16 0;
#X connect 21 0 16 1;
#X connect 22 0 10 1;
#X connect 24 0 0 0;
#X connect 24 0 1 0;
#X connect 24 0 11 0;
#X connect 24 0 12 0;
#X connect 24 0 13 0;
#X connect 25 0 24 0;
#X connect 26 0 4 0;
#X connect 26 0 5 0;
#X connect 26 0 6 0;
#X connect 26 0 21 0;
#X connect 26 0 22 0;
#X connect 30 0 29 0;
#X connect 31 0 29 0;
#X restore 363 456 pd osciladores;
#X obj 363 679 output~;
#X floatatom 364 401 5 0 0 0 - - -;
#X obj 433 419 bng 15 250 50 0 empty empty empty 17 7 0 10 -262144
-1 -1;
#X connect 0 0 8 0;
#X connect 1 0 8 1;
#X connect 2 0 9 0;
#X connect 2 0 9 1;
#X connect 3 0 2 1;
#X connect 4 0 3 1;
#X connect 5 0 3 2;
#X connect 6 0 3 3;
#X connect 7 0 3 4;
#X connect 8 0 2 0;
#X connect 10 0 0 0;
#X connect 11 0 3 0;
#X restore -11 -212 pd sinte 2;
#N canvas 2106 12 1239 964 tonalidad 0;
#X obj 56 145 inlet;
#X text 52 128 este bang dispara la nota;
#X msg 56 171 bang;
#X msg 12 284 0;
#X obj 56 479 +;
#X obj 297 219 symbol \$1;
#X obj 297 197 inlet;
#X text 338 196 Nombre de la tonalidad en mayusculas;
#X msg 285 377 0;
#X text 285 394 DO;
#X msg 317 377 1;
#X text 318 394 DO#;
#X text 345 393 RE;
#X text 379 394 RE#;
#X text 407 395 MI;
#X msg 346 377 2;
#X msg 380 377 3;
#X msg 408 378 4;
#X msg 439 378 5;
#X msg 472 377 6;
#X msg 506 377 7;
#X msg 536 377 8;
#X msg 568 377 9;
#X msg 597 378 10;
#X msg 629 378 11;
#X text 442 395 FA;
#X text 472 395 FA#;
#X text 535 395 SOL#;
#X text 506 394 SOL;
#X text 567 396 LA;
#X text 595 396 LA#;
#X text 629 397 SI;
#X obj 477 10 loadbang;
#X obj 477 32 t b b;
#X text 97 147 comment;
#X obj 714 171 inlet;
#X text 715 155 Octava (0-10);
#X obj 714 208 i \$2;
#X obj 714 230 * 12;
#X obj 714 253 t b f;
#X obj 714 454 +;
#X obj 56 502 outlet;
#X text 28 535 ESCALA MAYOR: Tenemos las siguientes notas. _____________________________
;
#X text 351 601 => TONOS Y SEMITONOS;
#X text 128 624 abtración notas a numeros;
#X text 31 634 ________________________________________________________
;
#X text 33 675 Como sostenidos y bemoles es lo mismo \, sacamos nuestras
doce teclas.;
#X text 31 697 ________________________________________________________
;
#X msg 42 285 2;
#X msg 72 286 4;
#X obj 297 243 select DO DO# REb RE RE# MIb MI FA FA# SOLb SOL SOL#
LAb LA LA# SIb SI DO1;
#X msg 669 378 12;
#X text 669 397 DO1;
#X obj 56 193 random 8;
#X msg 103 286 5;
#X msg 135 286 7;
#X msg 167 285 9;
#X msg 202 285 11;
#X msg 235 287 12;
#X obj 56 214 sel 0 1 2 3 4 5 6 7;
#X text 29 576 DO_____RE_____MI_____FA_____SOL_____LA_____SI_____DO1
____T______T______S______T_______T______T______S_____;
#X text 29 601 0___1__2___3___4_____5___6___7___8___9_10__11_____12
;
#X connect 0 0 2 0;
#X connect 2 0 53 0;
#X connect 3 0 4 0;
#X connect 4 0 41 0;
#X connect 5 0 50 0;
#X connect 6 0 5 0;
#X connect 8 0 40 0;
#X connect 10 0 40 0;
#X connect 15 0 40 0;
#X connect 16 0 40 0;
#X connect 17 0 40 0;
#X connect 18 0 40 0;
#X connect 19 0 40 0;
#X connect 20 0 40 0;
#X connect 21 0 40 0;
#X connect 22 0 40 0;
#X connect 23 0 40 0;
#X connect 24 0 40 0;
#X connect 32 0 33 0;
#X connect 33 0 5 0;
#X connect 33 1 37 0;
#X connect 35 0 37 0;
#X connect 37 0 38 0;
#X connect 38 0 39 0;
#X connect 39 0 40 0;
#X connect 39 1 40 1;
#X connect 40 0 4 1;
#X connect 48 0 4 0;
#X connect 49 0 4 0;
#X connect 50 0 8 0;
#X connect 50 1 10 0;
#X connect 50 2 10 0;
#X connect 50 3 15 0;
#X connect 50 4 16 0;
#X connect 50 5 16 0;
#X connect 50 6 17 0;
#X connect 50 7 18 0;
#X connect 50 8 19 0;
#X connect 50 9 19 0;
#X connect 50 10 20 0;
#X connect 50 11 21 0;
#X connect 50 12 21 0;
#X connect 50 13 22 0;
#X connect 50 14 23 0;
#X connect 50 15 23 0;
#X connect 50 16 24 0;
#X connect 50 17 51 0;
#X connect 51 0 40 0;
#X connect 53 0 59 0;
#X connect 54 0 4 0;
#X connect 55 0 4 0;
#X connect 56 0 4 0;
#X connect 57 0 4 0;
#X connect 58 0 4 0;
#X connect 59 0 3 0;
#X connect 59 1 48 0;
#X connect 59 2 49 0;
#X connect 59 3 54 0;
#X connect 59 4 55 0;
#X connect 59 5 56 0;
#X connect 59 6 57 0;
#X connect 59 7 58 0;
#X restore 160 133 pd tonalidad DO 5;
#X msg 209 27 DO;
#X msg 214 47 DO#;
#X floatatom 259 113 5 0 10 1 Pitch - -;
#X msg 220 66 RE;
#X msg 226 86 LA;
#X obj 103 106 bng 15 250 50 0 empty empty empty 17 7 0 10 -262144
-1 -1;
#X msg 103 192 95 2;
#X msg 111 170 set \$1 2;
#X obj 103 219 unpack f f;
#X obj 103 244 makenote 0 10000;
#N canvas 2130 22 864 1046 seq 0;
#X obj 104 122 bng 15 250 50 0 empty empty empty 17 7 0 10 -262144
-1 -1;
#X obj 178 -287 metro;
#X obj 185 -206 bng 15 250 50 0 empty empty empty 17 7 0 10 -262144
-1 -1;
#X floatatom 185 -247 5 0 0 0 - - -;
#X obj 185 -225 sel 0;
#X msg 185 -187 0;
#X obj 178 -138 cup;
#X obj 178 -118 demux 1 2;
#X floatatom 229 -137 5 0 2 0 - - -;
#X obj 229 -99 mod 3;
#X obj 178 -99 mod 4;
#X floatatom 178 -80 5 0 0 1 Tempo_4/4 - -;
#X floatatom 276 -82 5 0 0 1 Tempo_6/8 - -;
#X obj 178 -330 receive \$0-boton_On/Off;
#X obj 229 -161 r \$0-figura;
#X obj 178 -60 + 1;
#X obj 185 -267 receive \$0-boton_On/Off;
#X obj 104 14 cup;
#X floatatom 104 34 5 0 0 0 - - -;
#X floatatom 190 124 5 0 127 1 nota - -;
#X obj 190 104 tgl 15 0 empty empty Start/stop 17 7 0 10 -262144 -1
-1 1 1;
#X obj 104 75 spigot;
#X obj 104 105 cnv 15 1 1 empty empty Arpegiador 0 5 0 14 -262144 -66577
0;
#X obj 104 54 mod 16;
#X floatatom -53 154 5 0 0 0 - - -;
#X obj -53 73 r \$0-tempo;
#X floatatom -53 300 5 0 0 0 - - -;
#X obj -53 319 s \$0-bpmArpegiador;
#X obj 205 -310 r \$0-bpmArpegiador;
#X obj -53 247 *;
#X msg 104 262 1;
#X obj 104 190 bng 15 250 50 0 empty empty Negras 17 7 0 10 -262144
-1 -1;
#X obj 104 139 bng 15 250 50 0 empty empty Redondas 17 7 0 10 -262144
-1 -1;
#X msg 105 304 4;
#X obj 104 156 bng 15 250 50 0 empty empty Blancas 17 7 0 10 -262144
-1 -1;
#X msg 105 285 2;
#X msg 105 240 3;
#X obj 104 173 bng 15 250 50 0 empty empty Tresillo 17 7 0 10 -262144
-1 -1;
#X obj 104 207 bng 15 250 50 0 empty empty Corcheas 17 7 0 10 -262144
-1 -1;
#X msg 105 323 0.5;
#X obj 178 -18 spigot;
#X floatatom 190 238 5 0 10 1 octava - -;
#X obj 190 259 i \$2;
#X obj 190 279 * 12;
#X obj 190 298 t b f;
#X obj 190 318 +;
#X msg 178 362 88 2;
#X msg 190 338 set \$1 2;
#X obj 178 382 unpack f f;
#X obj 178 403 makenote 0 10000;
#X obj 178 538 noteout 1;
#X msg 488 224 1;
#X obj 190 155 hradio 15 1 0 9 empty empty octava 0 -8 0 10 -262144
-1 -1 4;
#X msg 479 -1 bang;
#X floatatom 265 511 5 0 0 0 - - -;
#X obj 265 530 +;
#X floatatom 265 550 5 0 0 0 - - -;
#X obj 280 173 tgl 15 0 empty empty semitonos 17 7 0 10 -262144 -1
-1 1 1;
#X obj 280 330 spigot;
#X floatatom 280 351 5 0 0 0 - - -;
#X obj 178 465 demux 0 1 2 3;
#X floatatom 253 444 5 0 0 0 - - -;
#X msg 178 4 bang;
#X obj 178 424 pack f f;
#X obj 178 493 unpack f f;
#X floatatom 178 514 5 0 0 0 - - -;
#X floatatom 215 513 5 0 0 0 - - -;
#X obj 265 492 unpack f f;
#X floatatom 322 550 5 0 0 0 - - -;
#X obj 265 570 noteout 1;
#X obj 190 209 bng 15 250 50 0 empty empty Down 17 7 0 10 -262144 -1
-1;
#X obj 280 242 s \$0-semitonosOn/off;
#X obj 253 425 r \$0-semitonosOn/off;
#X obj 313 309 r \$0-semitonosOn/off;
#X msg 488 207 0;
#X msg 488 188 2;
#X floatatom 518 245 5 0 0 0 - - -;
#X text 551 240 set max;
#X obj 479 265 counter;
#X floatatom 479 286 5 0 0 0 - - -;
#X floatatom 280 302 5 0 0 0 - - -;
#X obj 190 192 bng 15 250 50 0 empty empty Up 17 7 0 10 -262144 -1
-1;
#X obj 518 225 r \$0-semitono;
#X floatatom 190 173 5 0 12 1 semitono - #0-semitono;
#X obj 223 192 bng 15 250 50 0 empty empty Up/Down 17 7 0 10 -262144
-1 -1;
#X connect 1 0 6 0;
#X connect 1 0 17 0;
#X connect 2 0 5 0;
#X connect 3 0 4 0;
#X connect 4 0 2 0;
#X connect 5 0 6 0;
#X connect 5 0 17 0;
#X connect 6 0 7 0;
#X connect 7 0 10 0;
#X connect 7 1 9 0;
#X connect 8 0 7 1;
#X connect 9 0 12 0;
#X connect 10 0 11 0;
#X connect 11 0 15 0;
#X connect 12 0 15 0;
#X connect 13 0 1 0;
#X connect 14 0 8 0;
#X connect 15 0 40 0;
#X connect 16 0 3 0;
#X connect 17 0 18 0;
#X connect 18 0 23 0;
#X connect 19 0 45 0;
#X connect 20 0 21 1;
#X connect 20 0 40 1;
#X connect 21 0 0 0;
#X connect 23 0 21 0;
#X connect 24 0 29 0;
#X connect 25 0 24 0;
#X connect 26 0 27 0;
#X connect 28 0 1 1;
#X connect 29 0 26 0;
#X connect 30 0 29 1;
#X connect 31 0 30 0;
#X connect 31 0 24 0;
#X connect 32 0 33 0;
#X connect 32 0 24 0;
#X connect 33 0 29 1;
#X connect 34 0 35 0;
#X connect 34 0 24 0;
#X connect 35 0 29 1;
#X connect 36 0 29 1;
#X connect 37 0 36 0;
#X connect 37 0 24 0;
#X connect 38 0 39 0;
#X connect 38 0 24 0;
#X connect 39 0 29 1;
#X connect 40 0 53 0;
#X connect 40 0 62 0;
#X connect 41 0 42 0;
#X connect 42 0 43 0;
#X connect 43 0 44 0;
#X connect 44 0 45 0;
#X connect 44 1 45 1;
#X connect 45 0 47 0;
#X connect 46 0 48 0;
#X connect 47 0 46 0;
#X connect 48 0 49 0;
#X connect 48 1 49 1;
#X connect 49 0 63 0;
#X connect 49 1 63 1;
#X connect 51 0 78 1;
#X connect 52 0 41 0;
#X connect 53 0 78 0;
#X connect 54 0 55 0;
#X connect 55 0 56 0;
#X connect 56 0 69 0;
#X connect 57 0 71 0;
#X connect 58 0 59 0;
#X connect 59 0 55 1;
#X connect 60 0 64 0;
#X connect 60 1 67 0;
#X connect 61 0 60 1;
#X connect 62 0 46 0;
#X connect 63 0 60 0;
#X connect 64 0 65 0;
#X connect 64 1 66 0;
#X connect 65 0 50 0;
#X connect 66 0 50 1;
#X connect 67 0 54 0;
#X connect 67 1 68 0;
#X connect 68 0 69 1;
#X connect 70 0 51 0;
#X connect 72 0 61 0;
#X connect 73 0 58 1;
#X connect 74 0 78 1;
#X connect 75 0 78 1;
#X connect 76 0 78 4;
#X connect 78 0 79 0;
#X connect 79 0 80 0;
#X connect 80 0 58 0;
#X connect 81 0 74 0;
#X connect 82 0 76 0;
#X connect 84 0 75 0;
#X coords 0 -1 1 1 264 130 2 100 100;
#X restore 186 -209 pd seq;
#X text 196 152 Tonalidad Do mayor;
#X text 88 -24 Presionar +/- para fijar tempo;
#X connect 2 0 15 0;
#X connect 7 0 2 0;
#X connect 8 0 7 1;
#X connect 9 0 7 1;
#X connect 10 0 7 2;
#X connect 11 0 7 1;
#X connect 12 0 7 1;
#X connect 13 0 7 0;
#X connect 13 0 14 0;
#X connect 14 0 16 0;
#X connect 15 0 14 0;
#X connect 16 0 17 0;
#X connect 16 1 17 1;
#X connect 17 0 1 0;
#X connect 17 1 1 1;
